<svg width="802" height="200" viewBox="0 0 802 200" fill="none" xmlns="http://www.w3.org/2000/svg">
<g clip-path="url(#clip0)">
<path d="M330.712 148.237C336.097 148.237 341.398 147.125 346.271 145.031C352.255 142.466 359.137 143.663 363.539 148.408L371.661 157.128C368.925 159.649 365.847 161.872 362.428 163.753C358.41 165.976 354.306 167.771 350.246 169.139C346.142 170.507 342.167 171.49 338.406 172.088C334.644 172.686 331.396 172.986 328.703 172.986C319.47 172.986 310.665 171.447 302.501 168.369C294.336 165.292 287.198 160.932 281.257 155.332C275.315 149.733 270.528 142.894 267.066 134.986C263.603 127.078 261.808 118.188 261.808 108.485C261.808 98.7818 263.561 89.8483 267.066 81.9833C270.528 74.0757 275.315 67.2366 281.257 61.6371C287.198 56.0376 294.336 51.635 302.501 48.6001C310.665 45.5225 319.513 43.9838 328.703 43.9838C336.525 43.9838 344.475 45.4798 352.426 48.4719C359.735 51.2503 366.318 55.5674 371.96 61.3379L363.967 69.331C359.564 73.7337 352.896 74.9733 347.211 72.3659C342.082 70.015 336.439 68.7754 330.712 68.7754H328.703C322.676 68.7754 317.204 69.8867 312.417 72.1094C307.673 74.2894 303.526 77.2815 300.107 80.9575C296.73 84.6335 294.123 88.9079 292.37 93.6952C290.618 98.4398 289.763 103.441 289.763 108.527C289.763 113.657 290.66 118.615 292.37 123.36C294.123 128.147 296.73 132.421 300.107 136.097C303.484 139.773 307.63 142.723 312.417 144.945C317.204 147.168 322.676 148.28 328.703 148.28L330.712 148.237ZM469.502 168.369C477.666 165.292 484.804 160.932 490.746 155.332C496.687 149.733 501.475 142.894 504.937 134.986C508.399 127.078 510.194 118.188 510.194 108.485C510.194 98.7818 508.442 89.8483 504.937 81.9833C501.432 74.0757 496.687 67.2366 490.746 61.6371C484.804 56.0376 477.666 51.635 469.502 48.6001C461.338 45.5225 452.49 43.9838 443.3 43.9838C434.067 43.9838 425.262 45.5225 417.098 48.6001C408.934 51.6777 401.795 56.0376 395.854 61.6371C389.912 67.2366 385.125 74.0757 381.663 81.9833C378.2 89.8483 376.405 98.7818 376.405 108.485C376.405 118.188 378.158 127.121 381.663 134.986C385.125 142.894 389.912 149.733 395.854 155.332C401.795 160.932 408.934 165.334 417.098 168.369C425.262 171.447 434.11 172.986 443.3 172.986C452.533 172.986 461.338 171.447 469.502 168.369ZM459.585 72.0667C464.33 74.2466 468.476 77.2387 471.896 80.9147C475.272 84.5907 477.88 88.8651 479.632 93.6525C481.385 98.3971 482.24 103.398 482.24 108.485C482.24 113.571 481.342 118.572 479.632 123.317C477.88 128.104 475.272 132.379 471.896 136.055C468.519 139.731 464.373 142.723 459.585 144.903C454.798 147.125 449.327 148.237 443.3 148.237C437.273 148.237 431.802 147.125 427.014 144.903C422.227 142.723 418.124 139.731 414.704 136.055C411.327 132.379 408.72 128.104 406.967 123.317C405.215 118.572 404.36 113.571 404.36 108.485C404.36 103.355 405.258 98.3971 406.967 93.6525C408.72 88.8651 411.327 84.5907 414.704 80.9147C418.124 77.2387 422.227 74.2466 427.014 72.0667C431.802 69.844 437.273 68.7326 443.3 68.7326C449.327 68.7326 454.798 69.844 459.585 72.0667ZM801.795 169.865V1.49605H788.844C780.594 1.49605 774.054 8.20688 774.054 16.4565V169.865H801.795ZM705.065 168.369C709.211 166.831 713.187 164.864 716.863 162.556L719.726 160.761V169.823H747.467V40.2223H734.601C726.352 40.2223 719.641 46.8904 719.641 55.1827V56.1658L716.863 54.4133C713.187 52.1051 709.211 50.1817 705.065 48.6001C696.901 45.5225 688.053 43.9838 678.863 43.9838C669.63 43.9838 660.825 45.5225 652.661 48.6001C644.497 51.6777 637.358 56.0376 631.417 61.6371C625.476 67.2366 620.688 74.0757 617.226 81.9833C613.764 89.8483 611.968 98.7818 611.968 108.485C611.968 118.188 613.721 127.121 617.226 134.986C620.688 142.894 625.476 149.733 631.417 155.332C637.358 160.932 644.497 165.334 652.661 168.369C660.825 171.447 669.673 172.986 678.863 172.986C688.096 172.986 696.901 171.447 705.065 168.369ZM695.148 72.0667C699.893 74.2466 704.039 77.2387 707.459 80.9147C710.836 84.5907 713.443 88.8651 715.196 93.6525C716.948 98.3971 717.803 103.398 717.803 108.485C717.803 113.571 716.905 118.572 715.196 123.317C713.443 128.104 710.836 132.379 707.459 136.055C704.082 139.731 699.936 142.68 695.148 144.903C690.361 147.125 684.89 148.237 678.863 148.237C672.836 148.237 667.365 147.125 662.577 144.903C657.79 142.723 653.687 139.731 650.267 136.055C646.848 132.379 644.283 128.104 642.53 123.317C640.778 118.572 639.923 113.571 639.923 108.485C639.923 103.355 640.821 98.3971 642.53 93.6525C644.283 88.8651 646.89 84.5907 650.267 80.9147C653.644 77.2387 657.79 74.2466 662.577 72.0667C667.365 69.844 672.836 68.7326 678.863 68.7326C684.89 68.7326 690.361 69.844 695.148 72.0667ZM559.436 97.1575C561.188 92.3702 563.796 88.0957 567.172 84.4197C570.549 80.7437 574.695 77.7517 579.483 75.5717C584.27 73.349 589.741 72.2377 595.768 72.2377H595.897C602.864 72.2377 608.549 66.5527 608.549 59.5854V48.5146C604.317 47.788 600.043 47.446 595.768 47.446C586.536 47.446 577.73 48.9848 569.566 52.0624C566.831 53.0883 564.138 54.3706 561.017 56.0376L558.324 57.4909C558.324 51.2075 553.238 46.121 546.954 46.121H530.37V169.737H558.324V104.595C558.453 102.03 558.795 99.7222 559.436 97.1575ZM191.152 50.4809C196.58 45.0524 199.573 37.8286 199.573 30.1774C199.573 22.4834 196.58 15.3024 191.152 9.8739C185.723 4.44539 178.5 1.4533 170.848 1.4533C163.155 1.4533 155.973 4.44539 150.545 9.8739C145.116 15.3024 142.124 22.5262 142.124 30.1774C142.124 37.8713 145.116 45.0524 150.545 50.4809C155.973 55.9094 163.197 58.9015 170.848 58.9015C178.5 58.9015 185.723 55.9094 191.152 50.4809ZM170.677 170.763C175.208 166.232 179.355 161.188 182.988 155.803C194.101 139.303 200 120.026 200 100.021C200 91.8572 198.974 83.6504 196.965 75.6572C195.042 75.358 193.161 75.2298 191.28 75.2298C173.413 75.2298 158.068 86.7279 153.152 103.697L151.87 109.083C150.032 119.726 144.988 129.387 137.294 137.038C127.42 146.912 114.255 152.34 100.278 152.34C86.3005 152.34 73.1353 146.912 63.2614 137.038C53.3875 127.164 47.959 113.999 47.959 100.021C47.959 86.044 53.3875 72.8788 63.3041 63.0049C70.1859 56.1231 78.8203 51.3358 88.3095 49.1131L88.8651 48.9848L90.2757 48.7711C91.4725 48.6429 92.7121 48.4291 94.0799 48.1299C112.203 44.1547 125.369 27.8265 125.369 9.27549C125.369 7.22377 125.198 5.21479 124.898 3.16307C116.649 1.0686 108.314 0 99.9786 0C80.1453 0 60.9959 5.77046 44.5822 16.713C39.0682 20.389 33.9389 24.6206 29.237 29.2798C-9.74567 68.2624 -9.74567 131.738 29.237 170.72C48.0872 189.57 73.2208 199.957 99.9786 199.957C126.736 200 151.827 189.613 170.677 170.763Z" fill="white"/>
</g>
<defs>
<clipPath id="clip0">
<rect width="801.795" height="200" fill="white"/>
</clipPath>
</defs>
</svg>
